<svg width="35" height="29" viewBox="0 0 35 29" fill="none" xmlns="http://www.w3.org/2000/svg">
<path d="M14.3639 4.15137C15.0721 4.51806 15.4838 4.94937 15.5991 5.44528C15.7246 5.94643 15.6589 6.44488 15.4022 6.94064C15.1351 7.45663 14.7581 7.81311 14.2712 8.01006C13.7944 8.21226 13.2019 8.13001 12.4937 7.76331C11.7956 7.40186 11.3763 6.96026 11.2359 6.43851C11.1056 5.92201 11.1741 5.40576 11.4412 4.88976C11.6979 4.39401 12.0721 4.05533 12.5639 3.87373C13.0658 3.69736 13.6658 3.78991 14.3639 4.15137ZM27.8252 11.1212C28.5537 11.4984 28.9755 11.9349 29.0908 12.4308C29.2162 12.932 29.1506 13.4304 28.8939 13.9262C28.6268 14.4422 28.2497 14.7987 27.7629 14.9956C27.2861 15.1978 26.6835 15.1103 25.955 14.7331C25.2671 14.3769 24.8579 13.9406 24.7276 13.4241C24.5973 12.9076 24.6658 12.3913 24.9329 11.8753C25.1896 11.3796 25.5638 11.0409 26.0556 10.8593C26.5473 10.6777 27.1372 10.765 27.8252 11.1212ZM14.1792 21.5685C12.4896 20.6936 10.9269 19.6728 9.49105 18.506C8.06012 17.3546 6.8018 16.068 5.71609 14.6462C4.62515 13.2346 3.74747 11.6961 3.08306 10.0306L4.31672 7.64791C5.09875 9.28448 6.05565 10.8063 7.18742 12.2134C8.31396 13.6306 9.57751 14.9071 10.9781 16.0428C12.3836 17.1939 13.8957 18.1885 15.5145 19.0267C17.1636 19.8806 18.8739 20.5544 20.6454 21.0482C22.4168 21.542 24.2113 21.8425 26.029 21.9497C27.8414 22.067 29.6442 21.9676 31.4372 21.6515L30.1878 24.0645C28.4038 24.4623 26.6054 24.6153 24.7926 24.5234C22.9847 24.447 21.1876 24.1515 19.4011 23.6371C17.6196 23.1381 15.8789 22.4485 14.1792 21.5685Z" fill="#EF432C"/>
</svg>
